<svg xmlns="http://www.w3.org/2000/svg" width="368.864" height="53" viewBox="0 0 368.864 53"><switch><g><path fill="#FFF" d="M324.399 6.815c0-3.579 1.17-4.818 3.027-4.818 1.859 0 3.374.688 5.162 4.818l10.67 24.159v15.212c0 3.579-1.444 4.611-5.644 5.162v.963H357.3v-.963c-4.2-.551-5.645-1.583-5.645-5.162V30.974L361.91 7.709c1.996-4.474 4.061-5.506 6.953-6.057V.689h-14.317v.963c4.887.551 6.607 1.858 5.23 5.094l-9.017 20.581-9.291-21.131c-1.239-2.823-.482-3.786 4.817-4.543V.689H315.38v.963c4.887.688 6.332 1.583 6.332 5.163v28.29L299.138.689h-11.151v.963c3.648.551 4.75 1.583 4.75 5.163v39.371c0 3.579-1.033 4.817-2.271 4.817-1.172 0-1.789-.551-3.372-4.817L270.296.482h-.962L253.228 44.26c-1.79 4.817-4.542 6.537-7.228 7.088v.963h14.797v-.963c-5.161-.551-6.744-2.478-5.574-5.714l3.648-9.979h15.211l3.442 9.43c1.513 4.198.619 5.438-3.786 6.264v.963h28.015v-.963c-4.888-.688-6.331-1.583-6.331-5.162V10.945l27.323 41.504h1.653V6.815zM127.061 26.5c0-16.037 7.571-24.435 16.451-24.435 5.23 0 8.604 1.17 10.669 3.235 1.513 1.515 2.684 3.648 3.854 7.021h.964V1.584C153.905.551 149.225 0 144.612 0c-13.353 0-27.188 8.673-27.188 26.5S131.259 53 143.787 53c5.507 0 10.394-.825 15.005-2.271l1.515-10.118-.896-.207c-1.102 2.134-2.478 4.061-3.992 5.575-3.304 3.304-7.64 4.957-12.045 4.957-8.467 0-16.313-8.19-16.313-24.436zm110.817 1.515c-1.17 0-2.616-.138-4.131-.344V2.686h4.131c6.813 0 9.842 3.648 9.842 12.664 0 9.017-3.028 12.665-9.842 12.665zM77.228.689V13.01h.963c1.514-7.847 4.612-10.324 9.912-10.324h2.546v43.5c0 3.579-1.445 4.611-5.644 5.162v.963h19.685v-.963c-4.198-.551-5.643-1.583-5.643-5.162v-43.5h2.546c5.3 0 8.397 2.478 9.911 10.324h.963V.689H77.228zM61.603 53c8.467 0 17.483-4.888 17.483-14.937 0-5.852-3.097-10.737-8.604-13.767l-9.705-5.369c-5.162-2.822-6.676-5.506-6.676-9.223 0-4.199 3.097-7.641 9.017-7.641 2.891 0 5.025.688 6.746 2.41 1.514 1.514 2.959 3.992 4.336 8.535h.963V1.584C71.652.551 68.004 0 63.805 0c-8.397 0-14.661 5.3-14.661 14.111 0 5.644 3.098 10.806 8.259 13.696l8.948 5.026c5.094 2.821 6.746 5.574 6.746 9.772 0 4.888-4.956 8.33-10.531 8.33-3.579 0-6.677-1.24-8.81-3.373-1.376-1.377-2.822-3.511-3.923-6.265h5.919v-.963c-1.583-.343-2.616-.619-3.992-3.855L40.266 9.086h-.963l-11.22 26.706c-1.514 3.58-2.478 4.201-4.267 4.544v.963h10.118v-.963c-3.648-.343-4.612-2.134-3.717-4.336l1.79-4.268h10.187l2.202 5.3c.964 2.34-.481 2.961-4.129 3.304v.963h7.984v9.912C52.104 52.311 57.267 53 61.603 53zm126.992-.551l14.937-41.367 1.17 35.242c.138 3.441-1.308 4.474-5.438 5.024v.963h40.816v-.963c-4.888-.688-6.333-1.583-6.333-5.162v-16.52c1.652.207 3.235.344 4.476.344 9.911 0 18.377-3.647 18.377-14.661 0-11.013-8.466-14.661-18.377-14.661h-17.622v.963c3.647.551 4.749 1.583 4.749 5.163v39.371c0 3.579-1.445 5.162-5.644 5.162h-.068c-4.404 0-6.195-1.583-6.332-5.024l-1.445-39.371c-.138-3.58 1.102-4.75 4.956-5.3V.689h-12.115l-13.283 37.169L178.133.689h-13.009v.963c3.854.551 5.094 1.721 4.956 5.3l-1.377 37.788c-.138 3.717-2.065 6.057-5.713 6.607v.963h13.697v-.963c-3.441-.551-5.506-2.753-5.369-6.607l1.17-34.347 15.143 42.055h.964zm-39.853-10.874c6.677 0 15.074-5.92 15.074-15.074 0-9.155-8.397-15.074-15.074-15.074-6.676 0-15.073 5.919-15.073 15.074 0 9.154 8.397 15.074 15.073 15.074zm0-28.084c4.199 0 7.159 3.442 7.159 13.009 0 9.568-2.96 13.009-7.159 13.009-4.198 0-7.158-3.44-7.158-13.009 0-9.567 2.96-13.009 7.158-13.009zM273.395 33.66H259.56l6.883-18.999 6.952 18.999zM41.367 29.737h-8.535l4.267-10.395 4.268 10.395zm-16.244 2.615h.963V16.864h-.963c-1.652 5.507-3.303 6.746-6.194 6.746h-5.782V2.686h9.155c5.3 0 8.397 2.478 9.912 10.324h.963V.689H0v.963c3.647.551 4.749 1.583 4.749 5.163v39.371c0 3.579-1.102 4.611-4.749 5.162v.963h19.479v-.963c-4.887-.688-6.333-1.583-6.333-5.162V25.605h5.782c2.891.07 4.543 1.239 6.195 6.747z"/></g></switch></svg>